<?xml version="1.0" standalone="no"?>
<!DOCTYPE svg PUBLIC "-//W3C//DTD SVG 1.1//EN" "http://www.w3.org/Graphics/SVG/1.1/DTD/svg11.dtd" >
<!--
2013-9-30: Created.
-->
<svg>
<metadata>
Created by iconfont
</metadata>
<defs>

<font id="iconfont" horiz-adv-x="1024" >
  <font-face
    font-family="iconfont"
    font-weight="500"
    font-stretch="normal"
    units-per-em="1024"
    ascent="896"
    descent="-128"
  />
    <missing-glyph />
    
    <glyph glyph-name="yunwei" unicode="&#59098;" d="M768.4096 734.208c-13.9264-20.8896-22.1184-45.8752-22.1184-72.9088 0-72.704 59.1872-131.8912 131.8912-131.8912s131.8912 59.1872 131.8912 131.8912-59.1872 131.8912-131.8912 131.8912c-19.8656 0-38.7072-4.5056-55.5008-12.288C737.0752 855.2448 628.1216 896 514.2528 896c-70.656 0-138.6496-15.36-202.1376-45.4656-17.6128-8.3968-24.9856-29.4912-16.7936-47.104 8.3968-17.6128 29.4912-24.9856 47.104-16.7936 53.8624 25.6 111.616 38.7072 171.8272 38.7072 93.3888 0 182.6816-32.1536 254.1568-91.136z m171.2128-72.9088c0-33.792-27.4432-61.2352-61.2352-61.2352S817.152 627.5072 817.152 661.2992s27.4432 61.2352 61.2352 61.2352 61.2352-27.4432 61.2352-61.2352zM312.32 79.4624c-122.2656 71.68-198.4512 204.1856-198.4512 345.7024 0 35.84 4.7104 71.2704 14.1312 105.472 5.7344-0.8192 11.6736-1.2288 17.8176-1.2288 72.704 0 131.8912 59.1872 131.8912 131.8912s-59.1872 131.8912-131.8912 131.8912S13.9264 734.0032 13.9264 661.2992c0-41.1648 19.0464-78.0288 48.7424-102.4-12.9024-43.2128-19.456-88.2688-19.456-133.7344 0-166.5024 89.2928-322.3552 233.2672-406.528 5.5296-3.2768 11.6736-4.9152 17.8176-4.9152 12.0832 0 23.9616 6.3488 30.5152 17.408 9.8304 16.7936 4.3008 38.5024-12.4928 48.3328z m-166.7072 643.072c33.792 0 61.2352-27.4432 61.2352-61.2352s-27.4432-61.2352-61.2352-61.2352-61.2352 27.4432-61.2352 61.2352 27.4432 61.2352 61.2352 61.2352zM949.8624 460.3904c-19.456 0-35.2256-15.7696-35.2256-35.2256 0-174.4896-111.616-326.656-275.0464-380.3136-17.2032 52.6336-66.9696 90.9312-125.3376 90.9312-72.704 0-131.8912-59.1872-131.8912-131.8912s59.1872-131.8912 131.8912-131.8912c61.6448 0 113.664 42.5984 128 99.9424 202.752 56.9344 343.04 241.2544 343.04 453.2224-0.2048 19.456-15.9744 35.2256-35.4304 35.2256zM514.2528-57.344c-33.792 0-61.2352 27.4432-61.2352 61.2352s27.4432 61.2352 61.2352 61.2352 61.2352-27.4432 61.2352-61.2352-27.4432-61.2352-61.2352-61.2352z"  horiz-adv-x="1024" />

    
    <glyph glyph-name="dashuju" unicode="&#58896;" d="M948.75 294.75c-2.5 0-281.25 458.75-281.25 458.75 16.25 13.75 21.25 28.75 21.25 51.25 0 42.5-33.75 77.5-76.25 78.75-82.5 1.25-85-85-82.5-88.75L217.5 678.5c-13.75 20-33.75 27.5-58.75 27.5C115 706 80 671 80 627.25c0-35 18.75-65 50-75l-71.25-300c-35-7.5-57.5-38.75-57.5-76.25 0-43.75 35-78.75 78.75-78.75 23.75 0 45 10 61.25 27.5l292.5-162.5v-2.5c0-43.75 35-78.75 78.75-78.75 47.5 0 78.75 42.5 73.75 83.75l311.25 182.5c13.75-10 31.25-11.25 48.75-11.25 43.75 0 78.75 35 78.75 78.75-1.25 40-37.5 81.25-76.25 80zM607.5 846c21.25 0 38.75-17.5 38.75-38.75s-17.5-38.75-38.75-38.75-38.75 17.5-38.75 38.75c0 20 17.5 38.75 38.75 38.75z m-61.25-407.5L403.75 521l182.5 210c2.5 0-3.75 0 0 0l-40-292.5zM580 376l242.5-136.25-260-10L580 376z m-42.5 21.25L520 223.5l-126.25-6.25-87.5 181.25 73.75 90 157.5-91.25zM545 758.5c2.5-3.75 6.25-6.25 7.5-10l-180-208.75-140 80v10c0 3.75 0 10-2.5 13.75l315 115zM221.25 586L350 513.5l-65-75-66.25 145 2.5 2.5z m-105 43.75c0 21.25 17.5 38.75 38.75 38.75s38.75-17.5 38.75-38.75S176.25 591 155 591s-38.75 16.25-38.75 38.75zM77.5 138.5c-21.25 0-38.75 17.5-38.75 38.75S56.25 216 77.5 216s38.75-17.5 38.75-38.75-17.5-38.75-38.75-38.75z m43.75 106.25c-6.25 3.75-11.25 6.25-20 10l71.25 300c6.25 2.5 10 0 16.25 2.5L260 406 121.25 244.75z m25-27.5L275 371l71.25-158.75L150 203.5c-3.75 7.5 0 7.5-3.75 13.75z m295-211.25l-280 155L365 172.25 440 11c-1.25-3.75 2.5 0 1.25-5z m-32.5 167.5l103.75 6.25-17.5-140c-7.5-2.5-13.75-3.75-20-6.25l-66.25 140zM510-77.75c-21.25 0-38.75 17.5-38.75 38.75s17.5 38.75 38.75 38.75 38.75-17.5 38.75-38.75-17.5-38.75-38.75-38.75z m63.75 82.5c-10 13.75-23.75 25-41.25 31.25l20 143.75L865 196c2.5-6.25 3.75-11.25 6.25-17.5l-297.5-173.75z m298.75 250l-288.75 165 41.25 310c2.5 0 3.75 0 3.75 2.5L901.25 286c-11.25-6.25-22.5-17.5-28.75-31.25z m68.75-77.5c-21.25 0-38.75 17.5-38.75 38.75s17.5 38.75 38.75 38.75S980 237.25 980 216c1.25-20-16.25-38.75-38.75-38.75z"  horiz-adv-x="1025" />

    
    <glyph glyph-name="peizhi" unicode="&#58880;" d="M691.20000031 246.40000031l75.19999969 129.6c3.19999969 7.99999969 3.19999969 19.2-3.19999969 22.39999969l-86.4 59.20000031c0 11.20000031 3.19999969 22.39999969 3.19999969 36.79999969 0 14.4 0 25.60000031-3.19999969 36.79999969l78.39999938 62.4c7.99999969 7.99999969 7.99999969 14.4 3.20000062 22.40000062l-75.20000062 129.6c-3.19999969 3.19999969-11.20000031 7.99999969-22.39999969 3.19999969l-94.39999969-36.79999969c-19.2 14.4-41.59999969 25.60000031-64.00000031 36.79999969l-14.4 96c3.19999969 11.20000031-7.99999969 19.2-16.00000031 19.2h-150.39999938c-6.40000031 0-17.59999969-7.99999969-17.60000062-14.4l-15.99999938-100.8c-22.39999969-7.99999969-41.59999969-22.39999969-64.00000031-36.79999969L134.40000031 748.8c-11.20000031 3.19999969-19.2 0-25.60000031-7.99999969L33.60000031 611.20000031c-3.19999969-3.19999969 0-14.4 7.99999969-22.40000062l78.40000031-59.19999938c0-11.20000031-3.19999969-22.39999969-3.20000062-36.80000062 0-14.4 0-25.60000031 3.20000062-36.79999969L41.6 393.6c-7.99999969-7.99999969-7.99999969-14.4-3.19999969-22.39999969l73.59999938-128.00000062c3.19999969-3.19999969 11.20000031-7.99999969 22.40000062-3.19999969l94.39999969 36.79999969c19.2-14.4 41.59999969-25.60000031 64.00000031-36.79999969l14.4-96c0-7.99999969 7.99999969-14.4 19.2-14.4h150.39999938c7.99999969 0 19.2 7.99999969 19.2 14.4l14.4 96c22.39999969 11.20000031 44.80000031 22.39999969 64.00000031 36.79999969l94.39999969-36.79999969c6.40000031-4.8 17.59999969-1.60000031 22.40000062 6.40000031z m-292.8 118.39999969c-72 0-131.20000031 59.20000031-131.20000031 129.6 0 70.39999969 60.79999969 129.6 131.20000031 129.6 72 0 131.20000031-59.20000031 131.19999938-129.6 0-70.39999969-60.79999969-129.6-131.19999938-129.6z m590.4-319.99999969L944 75.19999969000003c0 6.40000031 1.60000031 11.20000031 1.60000031 19.2s0 12.79999969-1.60000031 19.2l41.59999969 33.6c3.19999969 3.19999969 3.19999969 7.99999969 1.60000031 11.20000031l-38.4 67.2c-1.60000031 1.60000031-6.40000031 3.19999969-11.20000031 1.60000031L888.00000031 208.00000031000002c-9.6 7.99999969-20.80000031 12.79999969-33.6 19.2l-8.00000062 49.59999938c1.60000031 6.40000031-3.19999969 9.6-7.99999969 9.6h-78.40000031c-3.19999969 0-9.6-3.19999969-9.6-7.99999969l-7.99999969-52.8c-11.20000031-3.19999969-20.80000031-11.20000031-33.6-19.2l-46.39999969 19.2c-6.40000031 1.60000031-9.6 0-14.4-3.19999969L608 156.79999969000005c-1.60000031-1.60000031 0-7.99999969 3.19999969-11.19999938l41.60000062-30.40000031c0-6.40000031-1.60000031-11.20000031-1.60000031-19.2s0-12.79999969 1.60000031-19.2l-41.60000062-33.6c-3.19999969-4.8-3.19999969-7.99999969 0-11.20000031l38.4-67.2c1.60000031-1.60000031 6.40000031-3.19999969 11.20000031-1.59999938l49.60000031 19.2c9.6-7.99999969 20.80000031-12.79999969 33.6-19.2l7.99999969-49.60000031c0-3.19999969 3.19999969-7.99999969 9.6-7.99999969h78.40000031c3.19999969 0 9.6 3.19999969 9.6 7.99999969l7.99999969 49.60000031c11.20000031 6.40000031 24 11.20000031 33.6 19.2l49.60000031-19.2c3.19999969-1.60000031 9.6 0 11.19999938 3.19999969l38.4 67.2c1.60000031 3.19999969 1.60000031 9.6-1.59999938 11.20000031z m-190.40000062-17.60000062c-36.79999969 0-68.80000031 30.40000031-68.79999938 67.2 0 36.79999969 31.99999969 67.2 68.79999938 67.2s68.80000031-30.40000031 68.80000031-67.2c0-36.79999969-31.99999969-67.2-68.80000031-67.2z"  horiz-adv-x="1024" />

    
    <glyph glyph-name="cunchu" unicode="&#59056;" d="M0 896h1024v-1024H0zM889.6 896H64C25.6 896 0 870.4 0 832v-896c0-38.4 25.6-64 64-64h409.6c19.2 0 32 12.8 32 32s-12.8 32-32 32H64V832h825.6v-896h-224c-19.2 0-32-12.8-32-32s12.8-32 32-32h224c32 0 64 25.6 64 64V832c0 38.4-32 64-64 64zM192 768H128v-64h64V768z m633.6 0h-64v-64h64V768z m-64-768h64v64h-64v-64zM128 0h64v64H128v-64z m505.6 576v-256c0-6.4 6.4-19.2 6.4-25.6 6.4-6.4 12.8-6.4 25.6-6.4 102.4 0 160 57.6 160 160 0 96-57.6 160-160 160-6.4 0-19.2-6.4-25.6-6.4 0-6.4-6.4-19.2-6.4-25.6z m128-128c0-57.6-19.2-83.2-64-89.6V537.6c38.4-6.4 64-38.4 64-89.6zM409.6 608c-6.4 0-19.2-6.4-25.6-6.4 0-6.4-6.4-19.2-6.4-25.6v-256c0-6.4 6.4-19.2 6.4-25.6s12.8-6.4 25.6-6.4C512 288 569.6 345.6 569.6 448c0 96-57.6 160-160 160z m32-249.6V537.6c44.8-12.8 64-38.4 64-89.6 0-57.6-19.2-83.2-64-89.6z m96-134.4H160c-19.2 0-32-12.8-32-32s12.8-32 32-32h377.6c19.2 0 32 12.8 32 32s-12.8 32-32 32z m128-64h128c19.2 0 32 12.8 32 32s-12.8 32-32 32h-128c-19.2 0-32-12.8-32-32s12.8-32 32-32zM128 320c0-19.2 12.8-32 32-32S192 300.8 192 320V416h64V320c0-19.2 12.8-32 32-32S320 300.8 320 320V576c0 19.2-12.8 32-32 32S256 595.2 256 576v-96H192V576c0 19.2-12.8 32-32 32S128 595.2 128 576v-256z"  horiz-adv-x="1024" />

    
    <glyph glyph-name="cunchu1" unicode="&#58898;" d="M927.5 131.1l-75.721 486.48C822.858 704.4 773.599 804 649.639 804h-269.28c-66.361 0-155.399-32.46-203.04-189.84l-80.88-482.82S92 103.44 92 88.56C92 19.801 145.7-36 212-36h599.881c66.361 0 120.121 55.801 120.121 124.56 0 14.761-4.5 42.54-4.5 42.54zM387.92 552.361c3.84 0 7.2-1.44 10.98-2.1 5.1 55.561 52.62 99.36 111.18 99.36 55.5 0 101.28-39.241 110.34-90.601 3.84 0.601 7.801 1.14 11.82 1.14 36.54 0 66.18-28.74 66.18-64.26s-29.58-64.26-66.18-64.32H387.92c-34.38 0-62.16 27.12-62.16 60.42s27.721 60.361 62.16 60.361z m375.3-512.88H260.84c-29.7 0-53.76 22.38-53.76 50.039 0 27.54 24 49.98 53.76 49.98h502.32c29.7 0 53.76-22.441 53.76-49.98 0-27.66-24-50.039-53.7-50.039z"  horiz-adv-x="1024" />

    
    <glyph glyph-name="peizhi1" unicode="&#59114;" d="M1116.16 844.8H419.84c-90.624 0-163.84-73.216-163.84-163.84s73.216-163.84 163.84-163.84h696.32c90.624 0 163.84 73.216 163.84 163.84s-73.216 163.84-163.84 163.84z m-40.96-276.48c-62.464 0-112.64 50.176-112.64 112.64s50.176 112.64 112.64 112.64 112.64-50.176 112.64-112.64-50.176-112.64-112.64-112.64zM1116.16 250.88H419.84c-90.624 0-163.84-73.216-163.84-163.84s73.216-163.84 163.84-163.84h696.32c90.624 0 163.84 73.216 163.84 163.84s-73.216 163.84-163.84 163.84zM460.8-25.6c-62.464 0-112.64 50.176-112.64 112.64s50.176 112.64 112.64 112.64 112.64-50.176 112.64-112.64-50.176-112.64-112.64-112.64z"  horiz-adv-x="1536" />

    
    <glyph glyph-name="jiankong" unicode="&#59271;" d="M862.30016 101.00224H160.9984c-63.0016 0-96 32.9984-96 96v505.4976c0 62.19776 32.9984 96 96 96h701.19936c65.80224 0 96.1024-33.80224 96.1024-96.1024v-505.40032c0-59.19744-30.30016-95.99488-96-95.99488z m32.70144 623.7952c0 5.2992-4.39808 9.6-9.7024 9.6H139.29984c-5.2992 0-9.7024-4.3008-9.7024-9.6v-551.70048c0-5.2992 4.39808-9.6 9.7024-9.6H885.2992c5.2992 0 9.7024 4.3008 9.7024 9.6V724.79744zM268.09856 1.39776c0 17.60256 14.39744 32 32 32h422.59968c17.60256 0 32-14.39744 32-32 0-17.59744-14.39744-32-32-32H300.09856c-17.59744 0-32 14.40256-32 32zM511.40096 292.85888c-133.92384 0-235.43296 142.79168-236.29824 144.23552l-8.45312 12.65664 8.9856 13.48096 1.09056 1.408c25.5488 33.31072 117.9904 142.00832 234.6752 142.00832 133.92384 0 235.43296-142.79168 236.29824-144.23552l8.448-12.65152-8.7296-13.10208-0.01024 0.00512c-4.60288-6.69184-103.87456-143.80544-236.0064-143.80544z m-188.06784 157.0304c31.21664-36.27008 106.0096-111.67744 188.06784-111.67744 38.9888 0 80.41984 16.512 123.14112 49.07008 30.94016 23.57248 54.13376 49.40288 64.92672 62.32576-31.2064 36.27008-105.99936 111.67744-188.06784 111.67744-38.9888 0-80.41984-16.50688-123.14112-49.07008-30.92992-23.57248-54.12864-49.40288-64.92672-62.32576zM511.40096 372.69504c-41.76896 0-77.056 35.28704-77.056 77.056s35.28704 77.056 77.056 77.056 77.056-35.28704 77.056-77.056-35.28704-77.056-77.056-77.056z m0 108.75904c-17.18272 0-31.70304-14.5152-31.70304-31.70304s14.5152-31.70304 31.70304-31.70304c17.18272 0 31.70304 14.52032 31.70304 31.70304s-14.5152 31.70304-31.70304 31.70304z"  horiz-adv-x="1024" />

    
    <glyph glyph-name="jingbao" unicode="&#59201;" d="M544 684.8V825.6c0 19.2-12.8 32-32 32s-32-12.8-32-32v-134.4H512c6.4-6.4 19.2-6.4 32-6.4zM992 377.6h-128V320h128c19.2 0 32 12.8 32 25.6 0 19.2-12.8 32-32 32zM243.2 569.6c12.8 12.8 25.6 25.6 44.8 38.4L192 704c-12.8 12.8-32 12.8-44.8 0-12.8-12.8-12.8-32 0-38.4l96-96zM780.8 563.2l96 96c12.8 12.8 12.8 32 0 38.4-12.8 12.8-32 12.8-44.8 0l-96-96c19.2-6.4 32-25.6 44.8-38.4zM160 339.2v38.4h-128c-19.2 0-32-12.8-32-32 0-12.8 12.8-25.6 32-25.6h128v19.2zM876.8-6.4h-70.4V339.2c0 160-134.4 288-294.4 288-160 0-294.4-128-294.4-288v-345.6H147.2c-19.2 0-32-12.8-32-32s12.8-32 32-32h729.6c19.2 0 32 12.8 32 32-6.4 12.8-19.2 32-32 32z m-128 0H275.2V320C275.2 448 384 550.4 512 550.4S748.8 448 748.8 320v-326.4zM627.2 275.2c0 19.2-12.8 32-32 32H492.8l64 64c12.8 12.8 12.8 32 0 38.4-12.8 12.8-32 12.8-38.4 0L403.2 294.4c-6.4-6.4-6.4-12.8-6.4-25.6s19.2-25.6 32-25.6c6.4 0 6.4-6.4 12.8-6.4h102.4l-83.2-83.2c-12.8-6.4-12.8-25.6 0-38.4s32-12.8 44.8 0l115.2 115.2c6.4 6.4 12.8 19.2 6.4 32v12.8z"  horiz-adv-x="1024" />

    
    <glyph glyph-name="peizhi2" unicode="&#59196;" d="M230.485333-17.152H79.786667a36.522667 36.522667 0 0 0 0 73.088h150.698666a146.133333 146.133333 0 0 0 283.008 0h442.88a36.522667 36.522667 0 1 0 0-73.088H513.322667a146.133333 146.133333 0 0 0-282.88 0z m292.053334 365.141333H79.786667a36.522667 36.522667 0 1 0 0 73.045334h442.88a146.133333 146.133333 0 0 0 283.008 0h150.698666a36.522667 36.522667 0 1 0 0-73.045334H805.546667a146.133333 146.133333 0 0 0-283.008 0zM230.485333 713.344H79.786667a36.48 36.48 0 0 0 0 72.96h150.698666a146.133333 146.133333 0 0 0 283.008 0h442.88a36.394667 36.394667 0 0 0 31.616-54.741333 36.693333 36.693333 0 0 0-31.573333-18.346667H513.28a146.133333 146.133333 0 0 0-282.88 0V713.386667z m141.482667-36.608a73.130667 73.130667 0 1 1 0 146.261333 73.130667 73.130667 0 0 1 0-146.261333z m292.053333-365.312a73.088 73.088 0 1 1 0 146.218667 73.088 73.088 0 0 1 0-146.218667z m-292.053333-365.098667a73.088 73.088 0 1 1-0.042667 0h0.042667z"  horiz-adv-x="1024" />

    
    <glyph glyph-name="cunchu2" unicode="&#59536;" d="M832 608C788.8 756.8 652.8 859.2 496 859.2c-190.4 0-345.6-152-352-340.8C56 483.2 0 400 0 304c0-128 104-232 232-232 25.6 0 51.2 4.8 76.8 12.8 14.4 4.8 20.8 20.8 16 33.6-4.8 14.4-20.8 20.8-33.6 16-19.2-6.4-38.4-9.6-59.2-9.6-99.2 0-179.2 80-179.2 179.2 0 78.4 51.2 147.2 126.4 171.2 1.6 0 1.6 0 1.6 1.6 1.6 0 1.6 1.6 3.2 1.6s1.6 1.6 1.6 1.6l1.6 1.6 1.6 1.6 1.6 1.6 1.6 1.6 1.6 1.6c0 1.6 1.6 1.6 1.6 3.2s1.6 1.6 1.6 3.2 1.6 1.6 1.6 3.2 0 1.6 1.6 3.2v12.8c0 164.8 134.4 297.6 297.6 297.6 137.6 0 257.6-92.8 289.6-227.2 0-1.6 0-1.6 1.6-1.6 0-1.6 1.6-1.6 1.6-3.2s1.6-1.6 1.6-3.2 1.6-1.6 1.6-1.6l1.6-1.6 1.6-1.6 1.6-1.6 1.6-1.6c1.6 0 1.6-1.6 1.6-1.6 1.6 0 1.6-1.6 3.2-1.6s1.6-1.6 3.2-1.6 1.6 0 1.6-1.6C908.8 539.2 976 452.8 976 352c0-118.4-96-214.4-214.4-214.4-14.4 0-25.6-11.2-25.6-25.6s11.2-25.6 25.6-25.6c147.2 0 267.2 120 267.2 267.2-3.2 116.8-81.6 220.8-196.8 254.4z m-316.8-14.4c-14.4 0-25.6-11.2-25.6-25.6v-420.8l-128 128c-11.2 11.2-27.2 11.2-36.8 0-11.2-11.2-11.2-27.2 0-36.8L499.2 64c4.8-4.8 12.8-8 19.2-8 6.4 0 12.8 3.2 19.2 8l174.4 174.4c11.2 11.2 11.2 27.2 0 36.8-11.2 11.2-27.2 11.2-36.8 0L540.8 144V568c0 14.4-11.2 25.6-25.6 25.6z m312-632H212.8c-14.4 0-25.6-11.2-25.6-25.6s11.2-25.6 25.6-25.6h614.4c14.4 0 25.6 11.2 25.6 25.6s-11.2 25.6-25.6 25.6z"  horiz-adv-x="1028" />

    
    <glyph glyph-name="shuju" unicode="&#59129;" d="M1024 18.285714v-146.285714H0v146.285714h1024zM329.142857 457.142857v-365.714286H109.714286V457.142857h219.428571z m292.571429 438.857143v-804.571429h-219.428572V896h219.428572z m292.571428-219.428571v-585.142858h-219.428571V676.571429h219.428571z"  horiz-adv-x="1024" />

    
    <glyph glyph-name="-" unicode="&#58883;" d="M458.3424 684.4416v-363.52a30.72 30.72 0 0 1 61.44 0V684.4416a30.72 30.72 0 1 1-61.44 0zM305.152 594.1248v-273.2032a30.72 30.72 0 0 1 61.44 0V594.1248a30.72 30.72 0 1 1-61.44 0zM672.9728 474.5216v119.6032a30.72 30.72 0 0 1-61.44 0v-119.6032a30.72 30.72 0 0 1 61.44 0zM589.0048 21.9136h-71.2704v108.544h30.9248a26.624 26.624 0 0 1 26.624 26.624v8.192a26.624 26.624 0 0 1-26.624 26.624H120.832a25.6 25.6 0 0 0-25.6 25.6V739.7376A25.6 25.6 0 0 0 120.832 765.3376h732.16a25.6 25.6 0 0 0 25.6-25.6v-260.9152a30.72 30.72 0 0 1 61.44 0V739.7376a87.2448 87.2448 0 0 1-87.04 87.04H120.832a87.2448 87.2448 0 0 1-87.04-87.04v-522.24a87.2448 87.2448 0 0 1 87.04-87.04h335.4624v-108.544H266.24a30.72 30.72 0 0 1 0-61.44h322.7648a30.72 30.72 0 1 1 0 61.44zM947.2 191.2832l42.8032 1.2288-2.048 69.8368-43.008-1.2288a135.5776 135.5776 0 0 1-37.6832 61.44l20.48 37.6832-61.44 33.1776-20.48-37.6832a135.5776 135.5776 0 0 1-71.8848-2.2528l-22.528 36.4544-59.5968-36.6592 22.528-36.4544a135.5776 135.5776 0 0 1-34.2016-63.2832l-42.8032-1.2288 2.048-69.8368 43.008 1.2288a135.5776 135.5776 0 0 1 37.6832-61.44l-20.48-37.6832 61.44-33.1776 20.48 37.6832a135.5776 135.5776 0 0 1 71.8848 2.2528l22.528-36.4544 59.5968 36.6592-22.528 36.4544a135.5776 135.5776 0 0 1 34.2016 63.2832z m-16.7936 10.6496a117.3504 117.3504 0 0 0-35.4304-65.9456l-5.5296-5.12 20.48-33.3824-27.8528-17.2032-20.48 33.3824-7.168-2.6624a117.5552 117.5552 0 0 0-74.752-2.2528l-7.3728 2.2528L753.664 76.8l-28.672 15.5648 18.6368 34.4064-6.3488 4.7104a117.5552 117.5552 0 0 0-39.1168 63.6928l-1.8432 7.3728-39.3216-1.2288v32.5632l39.3216 1.4336v7.3728a117.3504 117.3504 0 0 0 35.4304 65.9456l5.5296 5.12-20.48 33.3824 28.4672 16.384 20.48-33.3824 7.168 2.6624a117.5552 117.5552 0 0 0 74.752 2.2528l7.3728-2.2528 18.6368 34.4064 28.672-15.5648-18.6368-34.4064 5.9392-4.9152a117.3504 117.3504 0 0 0 39.1168-63.6928l1.8432-7.3728 39.3216 1.2288v-32.5632l-39.1168-1.2288zM813.6704 290.816a68.4032 68.4032 0 1 1 68.4032-68.4032 68.4032 68.4032 0 0 1-68.4032 68.4032z m0-116.1216a47.9232 47.9232 0 1 0 47.9232 47.9232 47.9232 47.9232 0 0 0-47.9232-48.128z"  horiz-adv-x="1024" />

    
    <glyph glyph-name="System" unicode="&#58946;" d="M618.666667 768a21.333333 21.333333 0 0 0 21.333333-21.333333v-213.333334a21.333333 21.333333 0 0 0-21.333333-21.333333h-74.666667v-96h245.333333c27.605333 0 50.346667-20.992 53.077334-47.872l0.256-5.461333V256a32.298667 32.298667 0 0 0-0.256-4.053333 128 128 0 1 0-63.488 0.085333L778.666667 256v96H245.333333V256a32.298667 32.298667 0 0 0-0.256-4.053333 128 128 0 1 0-63.488 0.085333L181.333333 256v106.666667c0 29.44 23.893333 53.333333 53.333334 53.333333h245.333333V512H405.333333a21.333333 21.333333 0 0 0-21.333333 21.333333v213.333334a21.333333 21.333333 0 0 0 21.333333 21.333333h213.333334zM512 256a128 128 0 1 0 0-256 128 128 0 0 0 0 256z m-298.666667-64a64 64 0 1 1 0-128 64 64 0 0 1 0 128z m298.666667 0a64 64 0 1 1 0-128 64 64 0 0 1 0 128z m298.666667 0a64 64 0 1 1 0-128 64 64 0 0 1 0 128z m-234.666667 512h-128v-128h128v128z"  horiz-adv-x="1024" />

    
    <glyph glyph-name="ai" unicode="&#58882;" d="M1304.964485 325.800214c0 81.370234-67.261195 145.225799-148.631429 145.225799s-148.631429-67.261195-148.631429-145.225799c0-81.370234 67.261195-148.631429 148.631429-148.631429s148.631429 67.261195 148.631429 148.631429z m-251.408481 0c0 56.557786 46.097636 102.655422 102.655423 102.655422 56.557786 0 102.655422-46.097636 102.655422-102.655422 0-56.557786-46.097636-102.655422-102.655422-102.655422-56.557786 0-102.655422 46.097636-102.655423 102.655422z m0 0M1347.413232 7.252168h-53.030526l-38.921487 99.128162c109.831571 38.921487 184.025656 145.225799 184.025656 265.51752 0 155.685948-127.46787 283.153819-283.153819 283.153819S873.179237 527.583799 873.179237 371.89785c0-120.291721 74.315714-222.947143 180.498397-261.99026l-38.921487-99.128163h-38.921487c-10.703409 0-21.163559-10.703409-21.163559-21.163558 0-10.703409 10.703409-21.163559 21.163559-21.163559h371.700202c10.703409 0 21.163559 10.703409 21.163558 21.163559 0 6.93289-10.703409 17.636299-21.285188 17.636299z m-431.785248 364.645682c0 130.99513 106.182682 240.705072 240.705072 240.705072 134.52239 0 240.705072-106.182682 240.705072-240.705072 0-134.52239-106.182682-240.705072-240.705072-240.705072-134.644019-0.12163-240.705072 106.182682-240.705072 240.705072zM1060.610524 7.252168l31.866967 84.897493V95.676921c21.163559-3.52726 38.921487-7.05452 60.206676-7.054519 17.636299 0 38.921487 3.52726 56.557786 7.054519v-3.52726l31.866967-84.897493H1060.610524z m0 0M1156.211427 504.230906c19.582373 0 35.394227 15.811854 35.394227 35.394228 0 12.649483-6.81126 24.325929-17.636299 30.650671-10.946668 6.324742-24.447559 6.324742-35.394227 0s-17.636299-18.001188-17.636299-30.650671c-0.12163-19.460744 15.690224-35.394227 35.272598-35.394228z m0 0M1091.747714 324.583917c0-35.637487 28.826226-64.463713 64.463713-64.463713s64.463713 28.826226 64.463713 64.463713c0 23.109633-12.284594 44.273192-32.231857 55.828008a64.865091 64.865091 0 0 1-64.463713 0c-19.947262-11.554816-32.231857-32.961634-32.231856-55.828008z m0 0M1692.476541 798.574653h-225.866255c-85.870531 0-156.172467-70.180306-156.172467-156.172467 0-85.870531 70.180306-156.172467 156.172467-156.172468h225.866255c85.870531 0 156.172467 70.180306 156.172467 156.172468s-70.301936 156.172467-156.172467 156.172467z m-93.776458-277.680485l-18.122817 55.584749h-84.410975l-18.244448-55.584749h-40.989191l83.073049 237.90759h37.826821l82.100012-237.90759h-41.232451z m113.358831 0h-39.772894V758.801758h39.772894v-237.90759zM1538.128519 703.460268l-31.13719-93.776458h62.639268l-30.529041 93.776458z"  horiz-adv-x="1848" />

    
    <glyph glyph-name="shexiangtou3" unicode="&#58931;" d="M509.305263 281.6m-129.347368 0a129.347368 129.347368 0 1 1 258.694737 0 129.347368 129.347368 0 1 1-258.694737 0ZM935.073684 750.484211H88.926316c-29.642105 0-53.894737-24.252632-53.894737-53.894737v-134.736842c0-29.642105 24.252632-53.894737 53.894737-53.894737h8.08421v-72.757895c0-29.642105 21.557895-53.894737 48.505263-61.978947 8.084211-196.715789 169.768421-353.010526 369.178948-353.010527 199.410526 0 361.094737 156.294737 369.178947 353.010527 26.947368 8.084211 48.505263 32.336842 48.505263 61.978947v72.757895h8.084211c29.642105 0 53.894737 24.252632 53.894737 53.894737v134.736842c-5.389474 29.642105-29.642105 53.894737-59.284211 53.894737z m-862.315789-53.894737c0 8.084211 8.084211 16.168421 16.168421 16.168421h846.147368c8.084211 0 16.168421-8.084211 16.168421-16.168421v-134.736842c0-8.084211-8.084211-16.168421-16.168421-16.168421H88.926316c-8.084211 0-16.168421 8.084211-16.168421 16.168421v134.736842zM889.263158 435.2c0-16.168421-13.473684-26.947368-26.947369-26.947368-10.778947 0-18.863158-8.084211-18.863157-18.863158 0-183.242105-148.210526-331.452632-331.452632-331.452632S180.547368 203.452632 180.547368 386.694737c0 10.778947-8.084211 18.863158-18.863157 18.863158-16.168421 0-26.947368 13.473684-26.947369 26.947368v72.757895h754.526316v-70.063158zM509.305263 130.694737c83.536842 0 148.210526 67.368421 148.210526 148.210526 0 83.536842-67.368421 148.210526-148.210526 148.210526s-148.210526-67.368421-148.210526-148.210526 67.368421-148.210526 148.210526-148.210526z m0 261.389474c61.978947 0 110.484211-51.2 110.484211-110.484211S571.284211 168.421053 509.305263 168.421053s-110.484211 51.2-110.48421 110.48421 51.2 113.178947 110.48421 113.178948zM509.305263 216.926316c35.031579 0 64.673684 29.642105 64.673684 64.673684 0 10.778947-8.084211 18.863158-18.863158 18.863158s-18.863158-8.084211-18.863157-18.863158c0-13.473684-10.778947-26.947368-26.947369-26.947368-10.778947 0-18.863158-8.084211-18.863158-18.863158s10.778947-18.863158 18.863158-18.863158z"  horiz-adv-x="1024" />

    
    <glyph glyph-name="shexiangtou4" unicode="&#59005;" d="M501.221053 189.978947c18.863158 0 37.726316 16.168421 37.726315 37.726316V303.157895h121.263158c67.368421 0 126.652632 24.252632 164.378948 67.368421 35.031579 37.726316 53.894737 88.926316 59.28421 150.905263 70.063158 13.473684 105.094737 56.589474 105.094737 126.652632-5.389474 153.6-153.6 212.884211-247.915789 212.88421H285.642105c-102.4 0-250.610526-105.094737-250.610526-266.778947v-70.063158c0-29.642105 24.252632-53.894737 53.894737-53.894737h16.168421c5.389474-97.010526 61.978947-167.073684 140.126316-167.073684h88.926315v-75.452632c0-18.863158 16.168421-37.726316 37.726316-37.726316h43.11579v-29.642105c0-64.673684 53.894737-118.568421 118.568421-118.568421h35.031579v-64.673684c0-37.726316 32.336842-70.063158 70.063158-70.063158h126.652631c37.726316 0 70.063158 32.336842 70.063158 70.063158v167.073684c0 37.726316-32.336842 70.063158-70.063158 70.063158h-126.652631c-37.726316 0-70.063158-32.336842-70.063158-70.063158v-64.673684h-35.031579c-43.115789 0-80.842105 35.031579-80.842106 80.842105v29.642105h48.505264z m105.094736-45.810526c0 18.863158 13.473684 32.336842 32.336843 32.336842h126.652631c18.863158 0 32.336842-13.473684 32.336842-32.336842v-167.073684c0-18.863158-13.473684-32.336842-32.336842-32.336842h-126.652631c-18.863158 0-32.336842 13.473684-32.336843 32.336842v64.673684h78.147369c10.778947 0 18.863158 8.084211 18.863158 18.863158s-8.084211 18.863158-18.863158 18.863158h-78.147369v64.673684zM142.821053 472.926316h296.421052c29.642105 0 59.284211 10.778947 83.536842 29.642105 8.084211-29.642105 24.252632-56.589474 48.505264-75.452632 26.947368-24.252632 64.673684-37.726316 99.705263-37.726315h18.863158c72.757895 13.473684 115.873684 75.452632 115.873684 169.768421 0 72.757895-13.473684 123.957895-86.231579 177.852631 10.778947 5.389474 24.252632 10.778947 40.421052 16.168421 10.778947 2.694737 16.168421 13.473684 13.473685 24.252632-2.694737 10.778947-13.473684 16.168421-24.252632 13.473684-29.642105-8.084211-53.894737-21.557895-72.757895-37.726316l-2.694736-2.694736c-26.947368-21.557895-48.505263-53.894737-72.757895-99.705264-35.031579-67.368421-99.705263-140.126316-161.684211-140.126315h-350.315789c-8.084211 0-16.168421 8.084211-16.168421 16.168421v70.063158c0 140.126316 126.652632 229.052632 212.88421 229.052631h455.410527c53.894737 0 204.8-32.336842 210.189473-175.157895 0-48.505263-18.863158-75.452632-67.368421-88.926315 0 16.168421 0 35.031579-2.694737 51.2 0 10.778947-10.778947 18.863158-21.557894 16.168421-10.778947 0-18.863158-10.778947-16.168421-21.557895 10.778947-88.926316-8.084211-164.378947-48.505264-210.189474-32.336842-37.726316-78.147368-56.589474-137.431579-56.589473H245.221053c-56.589474 0-97.010526 53.894737-102.4 132.042105z m490.442105 158.989473c18.863158 37.726316 35.031579 61.978947 53.894737 78.147369 67.368421-45.810526 80.842105-86.231579 80.842105-153.6 0-75.452632-29.642105-123.957895-83.536842-132.042105-32.336842-2.694737-61.978947 5.389474-86.231579 26.947368-21.557895 18.863158-37.726316 48.505263-37.726316 75.452632 26.947368 32.336842 53.894737 70.063158 72.757895 105.094736zM371.873684 303.157895h126.652632v-75.452632h-64.673684-2.694737-59.284211V303.157895z"  horiz-adv-x="1024" />

    
    <glyph glyph-name="Accountmaintenance" unicode="&#58975;" d="M1002.4192 123.2896a19.08224 19.08224 0 0 1-5.92896 7.56224c-2.62144 2.00192-5.2224 3.10784-9.90208 4.28032l-43.27936 10.82368a156.64128 156.64128 0 0 1-15.33952 37.01248l22.9376 38.22592c2.19136 3.64544 3.54816 6.47168 3.99872 10.06592a18.75968 18.75968 0 0 1-1.152 9.46176c-1.32096 3.42528-3.3024 5.83168-6.30784 8.86784l-11.24864 11.25888c-3.42016 3.3792-5.67808 5.00736-8.69888 6.24128a19.5584 19.5584 0 0 1-9.50784 1.18272c-3.26144-0.41984-5.89824-1.4592-10.10176-3.97312l-38.28224-22.96832a155.61728 155.61728 0 0 1-37.00224 15.32928l-10.8288 43.29472c-1.1776 4.75648-2.31936 7.36256-4.28032 9.8816a18.86208 18.86208 0 0 1-7.61856 5.95456c-3.03104 1.29024-5.8112 1.75104-10.62912 1.75104h-15.85152c-4.80256 0-7.5776-0.45056-10.69056-1.7664-3.01056-1.3056-5.632-3.37408-7.53152-5.90336-2.02752-2.65728-3.15904-5.25312-4.31104-9.92256l-10.8288-43.2896a156.43136 156.43136 0 0 1-37.01248-15.32928l-38.23104 22.9376c-4.20864 2.52928-6.8608 3.57888-10.0608 3.99872a18.71872 18.71872 0 0 1-9.51808-1.1776c-3.40992-1.3312-5.80096-3.30752-8.80128-6.28224l-11.26912-11.25888c-3.38944-3.43552-5.0176-5.69856-6.272-8.77056a19.03616 19.03616 0 0 1-1.152-9.40544c0.4608-3.69152 1.81248-6.50752 3.97824-10.1376l22.96832-38.26688a155.9296 155.9296 0 0 1-15.33952-37.01248l-43.2896-10.82368c-4.7616-1.18784-7.36768-2.31936-9.8816-4.25984-2.6112-1.99168-4.67968-4.63872-5.95968-7.64928-1.28-3.00032-1.7408-5.78048-1.7408-10.61888v-15.84128c0-4.81792 0.45056-7.58784 1.76128-10.69056a18.944 18.944 0 0 1 5.9392-7.57248c2.65216-2.01216 5.23776-3.12832 9.89184-4.27008l43.27936-10.8288a156.06784 156.06784 0 0 1 15.33952-37.00224l-22.9376-38.25152c-2.19136-3.63008-3.54816-6.4512-3.99872-10.0608a18.74432 18.74432 0 0 1 1.16224-9.49248c1.32096-3.39968 3.3024-5.80096 6.29248-8.82176l11.24864-11.24864c3.4304-3.39968 5.68832-5.03808 8.77056-6.2976a18.9184 18.9184 0 0 1 9.4208-1.14176c3.28192 0.4096 5.92896 1.44896 10.1376 3.968l38.26176 22.97856a155.96032 155.96032 0 0 1 37.01248-15.34976l10.8288-43.27936c1.17248-4.75136 2.31936-7.36768 4.29056-9.89184 1.98144-2.6112 4.61824-4.66944 7.552-5.91872 3.0208-1.31072 5.8112-1.78176 10.69056-1.78176h15.85152c4.8384 0 7.6288 0.4608 10.6496 1.76128a18.80064 18.80064 0 0 1 7.58784 5.92896c2.01216 2.64192 3.12832 5.23776 4.28032 9.90208l10.83904 43.27936a155.92448 155.92448 0 0 1 37.00224 15.34976l38.2208-22.9376c4.21888-2.54976 6.87104-3.59936 10.01984-3.98848a18.7392 18.7392 0 0 1 9.53856 1.14176c3.40992 1.32096 5.8112 3.3024 8.84224 6.2976l11.24864 11.25888c3.40992 3.4304 5.03808 5.7088 6.272 8.73984a18.8416 18.8416 0 0 1 1.17248 9.41056c-0.45056 3.69152-1.80224 6.51776-3.97824 10.15808l-22.96832 38.28224a156.1088 156.1088 0 0 1 15.33952 37.00224l43.2896 10.81856c4.72064 1.17248 7.3216 2.29888 9.8816 4.28032a18.88768 18.88768 0 0 1 5.9392 7.59808c1.30048 3.00032 1.76128 5.79072 1.76128 10.65984v15.84128c-0.00512 4.82816-0.45568 7.59808-1.7664 10.69568z m-109.98784-18.6112c0-55.75168-45.35808-101.09952-101.10976-101.09952-55.74144 0-101.09952 45.34784-101.09952 101.09952 0 55.74144 45.35808 101.0944 101.09952 101.0944 55.74656 0 101.10976-45.35296 101.10976-101.0944zM448.52224 876.17536c-166.37952 0-301.7472-135.35744-301.7472-301.72672 0-109.76256 58.93632-205.99808 146.80576-258.80064-160.03072-58.55232-273.76128-205.02016-273.76128-376.02816a35.06688 35.06688 0 0 1 70.13376 0h0.08192c0 183.68 160.81408 333.10208 358.49216 333.10208h9.70752v0.24576c161.88928 5.15584 292.02944 138.368 292.02944 301.48608-0.00512 166.36928-135.36256 301.7216-301.74208 301.7216z m0-533.248c-127.66208 0-231.51616 103.8592-231.51616 231.5264 0 127.65696 103.85408 231.51616 231.51616 231.51616 127.65696 0 231.50592-103.8592 231.50592-231.51616 0-127.6672-103.84896-231.5264-231.50592-231.5264z"  horiz-adv-x="1024" />

    
    <glyph glyph-name="AI" unicode="&#58964;" d="M801.398154 806.951385a133.572923 133.572923 0 0 0 133.553231-133.553231v-309.937231h-66.776616v-157.538461h66.756923l0.019693-111.320616a133.572923 133.572923 0 0 0-133.553231-133.553231H222.601846a133.572923 133.572923 0 0 0-133.553231 133.553231V673.398154a133.572923 133.572923 0 0 0 133.553231 133.553231h578.796308z m0-66.776616H222.601846a66.776615 66.776615 0 0 1-66.658461-62.857846l-0.118154-3.938461v-578.756924a66.776615 66.776615 0 0 1 62.857846-66.678153l3.938461-0.118154h578.756924a66.776615 66.776615 0 0 1 66.678153 62.857846l0.118154 3.938461v578.756924a66.776615 66.776615 0 0 1-62.857846 66.678153l-3.938461 0.118154zM267.126154 896m29.538461 0l7.699693 0q29.538462 0 29.538461-29.538462l0-74.496q0-29.538462-29.538461-29.538461l-7.699693 0q-29.538462 0-29.538461 29.538461l0 74.496q0 29.538462 29.538461 29.538462ZM267.126154 5.572923m29.538461 0l7.699693 0q29.538462 0 29.538461-29.538461l0-74.496q0-29.538462-29.538461-29.538462l-7.699693 0q-29.538462 0-29.538461 29.538462l0 74.496q0 29.538462 29.538461 29.538461ZM467.475692 896m29.538462 0l7.699692 0q29.538462 0 29.538462-29.538462l0-74.496q0-29.538462-29.538462-29.538461l-7.699692 0q-29.538462 0-29.538462 29.538461l0 74.496q0 29.538462 29.538462 29.538462ZM467.475692 5.572923m29.538462 0l7.699692 0q29.538462 0 29.538462-29.538461l0-74.496q0-29.538462-29.538462-29.538462l-7.699692 0q-29.538462 0-29.538462 29.538462l0 74.496q0 29.538462 29.538462 29.538461ZM690.077538 896m29.538462 0l7.699692 0q29.538462 0 29.538462-29.538462l0-74.496q0-29.538462-29.538462-29.538461l-7.699692 0q-29.538462 0-29.538462 29.538461l0 74.496q0 29.538462 29.538462 29.538462ZM690.077538 5.572923m29.538462 0l7.699692 0q29.538462 0 29.538462-29.538461l0-74.496q0-29.538462-29.538462-29.538462l-7.699692 0q-29.538462 0-29.538462 29.538462l0 74.496q0 29.538462 29.538462 29.538461ZM11.126154 380.140308v7.719384a29.538462 29.538462 0 0 0 29.538461 29.538462h74.496a29.538462 29.538462 0 0 0 29.538462-29.538462v-7.719384a29.538462 29.538462 0 0 0-29.538462-29.538462H40.664615a29.538462 29.538462 0 0 0-29.538461 29.538462zM890.427077 380.140308v7.719384a29.538462 29.538462 0 0 0 29.538461 29.538462H994.461538a29.538462 29.538462 0 0 0 29.538462-29.538462v-7.719384a29.538462 29.538462 0 0 0-29.538462-29.538462h-74.496a29.538462 29.538462 0 0 0-29.538461 29.538462zM11.126154 602.761846V610.461538a29.538462 29.538462 0 0 0 29.538461 29.538462h74.496a29.538462 29.538462 0 0 0 29.538462-29.538462v-7.699692a29.538462 29.538462 0 0 0-29.538462-29.538461H40.664615a29.538462 29.538462 0 0 0-29.538461 29.538461zM890.427077 602.761846V610.461538a29.538462 29.538462 0 0 0 29.538461 29.538462H994.461538a29.538462 29.538462 0 0 0 29.538462-29.538462v-7.699692a29.538462 29.538462 0 0 0-29.538462-29.538461h-74.496a29.538462 29.538462 0 0 0-29.538461 29.538461zM11.126154 179.790769v7.719385a29.538462 29.538462 0 0 0 29.538461 29.538461h74.496a29.538462 29.538462 0 0 0 29.538462-29.538461v-7.719385a29.538462 29.538462 0 0 0-29.538462-29.538461H40.664615a29.538462 29.538462 0 0 0-29.538461 29.538461zM890.427077 179.790769v7.719385a29.538462 29.538462 0 0 0 29.538461 29.538461H994.461538a29.538462 29.538462 0 0 0 29.538462-29.538461v-7.719385a29.538462 29.538462 0 0 0-29.538462-29.538461h-74.496a29.538462 29.538462 0 0 0-29.538461 29.538461zM389.041231 248.162462l20.736 67.052307h102.439384l21.090462-67.052307h65.496615l-101.139692 292.568615h-70.596923L323.938462 248.162462h65.122461z m108.504615 117.031384h-72.349538l30.995692 105.984a123.667692 123.667692 0 0 1 4.726154 25.678769h1.575384c0.827077-10.988308 2.225231-19.790769 4.214154-26.466461l30.818462-105.196308z m202.535385-117.031384V540.731077h-57.875693v-292.568615h57.875693zM250.781538 634.781538m-31.350153 0a31.350154 31.350154 0 1 1 62.700307 0 31.350154 31.350154 0 1 1-62.700307 0ZM250.781538 112.324923m-31.350153 0a31.350154 31.350154 0 1 1 62.700307 0 31.350154 31.350154 0 1 1-62.700307 0ZM773.218462 634.781538m-31.350154 0a31.350154 31.350154 0 1 1 62.700307 0 31.350154 31.350154 0 1 1-62.700307 0ZM773.218462 112.324923m-31.350154 0a31.350154 31.350154 0 1 1 62.700307 0 31.350154 31.350154 0 1 1-62.700307 0Z"  horiz-adv-x="1024" />

    
    <glyph glyph-name="ai1" unicode="&#58928;" d="M196.1-93.7c-9.1 0-17.6 3.5-24 9.9-6.3 6.3-9.9 15-9.9 24v236c0 1.9-1.4 3.5-3.3 3.8-39.1 5.1-108.4 19.7-133.7 60.7-12.4 20.1-13.5 44.2-3.1 67.7 27.2 61.2 72.5 105.4 97 126.2 0.7 0.6 1.2 1.5 1.3 2.4 8.9 71.3 71.3 426.8 428.7 426.8 194.6 0 351.9-88.1 420.8-235.5 73.4-157.3 30.3-352.4-118.3-535.4-0.6-0.7-0.8-1.5-0.8-2.4V-54c0-18.7-15.2-33.9-33.9-33.9S783-72.7 783-54V104.2c0 8 2.8 15.7 7.9 21.8C929.1 291.1 972 463.9 908.6 599.8c-57.5 123-191.8 196.4-359.4 196.4-336.2 0-361.8-364.6-362.8-380.1-0.7-10.1-5.7-19.4-13.9-25.4-6.3-4.8-60.7-47.3-88.4-109.7-0.4-1-0.4-2.1 0-3 7.1-16.8 65.6-31.1 113.6-33.5 18.1-0.9 32.2-15.7 32.3-33.8V-22c0-2.1 1.7-3.8 3.8-3.8h189.3c18.7 0 33.9-15.2 33.9-33.9s-15.2-33.9-33.9-33.9h-227zM583.9 208.7c-14.3 0-27.1 9-31.9 22.4l-21.3 62.3c-0.5 1.5-2 2.6-3.6 2.6H415.2c-1.6 0-3.1-1-3.6-2.5L389 230.6c-5.1-12.8-17.5-21.1-31.4-21.1-3.9 0-7.8 0.7-11.5 2-17.2 6.2-26.4 24.7-20.8 42.2l116.3 323.6c4.8 13.4 17.6 22.4 31.9 22.4 14.6-0.1 27.4-9.3 32-22.9l110.7-323.7c5.7-17.4-3.9-36.6-21.3-42.5-3.6-1.3-7.2-1.9-11-1.9z m-111.4 247c-1.6 0-3.1-1-3.6-2.5L438.7 369c-0.4-1.2-0.2-2.5 0.5-3.5s1.9-1.6 3.1-1.6h59c1.2 0 2.4 0.6 3.1 1.6 0.7 1 0.9 2.3 0.5 3.5l-28.8 84.2c-0.5 1.5-1.9 2.5-3.6 2.5z m225-244.5c-18.7 0-33.9 14.7-33.9 32.7V566.7c0 18 15.2 32.7 33.9 32.7s33.9-14.7 33.9-32.7v-322.9c-0.1-18-15.3-32.6-33.9-32.6z"  horiz-adv-x="1024" />

    
    <glyph glyph-name="shexiangtou5" unicode="&#58907;" d="M700-14.5H586a12 12 0 0 0 0 24h114a12 12 0 0 0 0-24zM438-14.5H324a12 12 0 0 0 0 24h114a12 12 0 0 0 0-24zM314.18 633.42a52.08 52.08 0 0 0-36.95 15.39l-28.76 28.76a18 18 0 0 0-0.28 25.17 364.7 364.7 0 0 0 527.62 0 18 18 0 0 0-0.28-25.17l-28.76-28.76a52.26 52.26 0 0 0-70.94-2.9 255 255 0 0 1-327.66 0 52.78 52.78 0 0 0-33.99-12.49z m-27.48 56.84l16-16a16.43 16.43 0 0 1 22.33-0.78 291 291 0 0 0 374 0 16.43 16.43 0 0 1 22.33 0.78l16 16C676.12 747.94 596.78 779.5 512 779.5s-164.12-31.56-225.3-89.24zM512 227.5a223 223 0 1 0 157.68 65.32A221.51 221.51 0 0 0 512 227.5z m0 410c-103.11 0-187-83.89-187-187s83.89-187 187-187 187 83.89 187 187-83.89 187-187 187zM512 293.12c-86.78 0-157.37 70.6-157.37 157.38S425.22 607.87 512 607.87s157.38-70.59 157.38-157.37S598.78 293.12 512 293.12z m0 278.75A121.38 121.38 0 1 1 633.38 450.5 121.5 121.5 0 0 1 512 571.87zM481.06 424.8a57.35 57.35 0 1 0 57.34 57.35 57.41 57.41 0 0 0-57.34-57.35z m0 90.7a33.35 33.35 0 1 1 33.34-33.35 33.39 33.39 0 0 1-33.34 33.35zM541.5 23.5h-59A30.53 30.53 0 0 0 452 54v52.87a10 10 0 0 0 20 0V54a10.51 10.51 0 0 1 10.5-10.5h59A10.51 10.51 0 0 1 552 54v52.87a10 10 0 0 0 20 0V54a30.53 30.53 0 0 0-30.5-30.5zM726.21-22.34c-5.76 31.39-24.85 56.53-56.73 74.71-17.06 9.73-37.65 17.3-61.48 22.63v-37c16.89-4.34 31.5-10 43.65-16.91 20.94-12 33.48-26.89 38.21-45.6H334.14c4.73 18.71 17.27 33.65 38.21 45.6C384.5 28 399.11 33.67 416 38v37c-23.83-5.35-44.42-12.92-61.48-22.65-31.88-18.18-51-43.32-56.73-74.71a32.28 32.28 0 0 1 31.71-38.14h365a32.28 32.28 0 0 1 31.71 38.16zM261.85 664.2l15.38-15.39a52.08 52.08 0 0 1 36.95-15.39 52.78 52.78 0 0 1 34 12.49 255 255 0 0 0 327.66 0 52.26 52.26 0 0 1 70.94 2.9l15.34 15.35 25.53 25.52q-5.76 6.63-11.87 13a18 18 0 0 1-25.74 0.29l-28.76-28.76a16.43 16.43 0 0 0-22.33-0.78 291 291 0 0 1-374 0 16.43 16.43 0 0 0-22.33 0.78L273.93 703a18 18 0 0 1-25.74-0.29q-6.1-6.39-11.87-13zM810.07 661.22l-25.86-25.86A327.33 327.33 0 0 0 841 450.5c0-181.41-147.59-329-329-329s-329 147.59-329 329a327.33 327.33 0 0 0 56.79 184.86l-25.86 25.86a365 365 0 1 1 596.14 0z"  horiz-adv-x="1024" />

    
    <glyph glyph-name="shexiangtou6" unicode="&#58914;" d="M510.53 401.85m-161.25 0a161.25 161.25 0 1 1 322.5 0 161.25 161.25 0 1 1-322.5 0ZM510.52 90.29c-194.86 0-353.39 158.53-353.39 353.39s158.53 353.4 353.39 353.4 353.41-158.54 353.41-353.4-158.54-353.39-353.41-353.39z m0 641.89C351.45 732.18 222 602.76 222 443.68s129.42-288.5 288.49-288.5S799 284.6 799 443.68s-129.4 288.5-288.48 288.5zM510.52 222.06c-99.13 0-179.79 80.66-179.79 179.79s80.66 179.79 179.79 179.79S690.31 501 690.31 401.85s-80.65-179.79-179.79-179.79z m0 294.68a114.89 114.89 0 1 1 114.9-114.89 115 115 0 0 1-114.9 114.89zM440.69-25.87a32.44 32.44 0 0 0-32.44 32.45V129.29a32.45 32.45 0 1 0 64.89 0v-122.71a32.44 32.44 0 0 0-32.45-32.45zM585.44-25.87A32.44 32.44 0 0 0 553 6.58V129.29a32.45 32.45 0 1 0 64.9 0v-122.71a32.45 32.45 0 0 0-32.46-32.45zM513.07 654.13m-38.48 0a38.48 38.48 0 1 1 76.96 0 38.48 38.48 0 1 1-76.96 0ZM781.2-32.39H239.86a32.45 32.45 0 0 0 0 64.9H781.2a32.45 32.45 0 0 0 0-64.9z"  horiz-adv-x="1024" />

    
    <glyph glyph-name="jiankongshexiangtou-xianxing" unicode="&#59648;" d="M512 688c-132.8 0-240-107.2-240-240s107.2-240 240-240 240 107.2 240 240-107.2 240-240 240z m0-416c-96.8 0-176 79.2-176 176s79.2 176 176 176 176-79.2 176-176-79.2-176-176-176z m384 176c0 212-172 384-384 384S128 660 128 448c0-192.8 142.4-352.8 328-380l-4-68H256v-64h512v64H573.6l-4 68C754.4 96 896 255.2 896 448zM512 128c-176.8 0-320 143.2-320 320s143.2 320 320 320 320-143.2 320-320-143.2-320-320-320z m128 352c0-52.8-43.2-96-96-96s-96 43.2-96 96 43.2 96 96 96 96-43.2 96-96z"  horiz-adv-x="1024" />

    
    <glyph glyph-name="shexiangtou" unicode="&#60247;" d="M128 736h816v-144H128zM544 320m-176 0a176 176 0 1 1 352 0 176 176 0 1 1-352 0ZM880 608H144a16 16 0 0 1 0-32h736a16 16 0 0 1 0 32zM512 512c-106.032 0-192-85.968-192-192s85.968-192 192-192 192 85.968 192 192-85.968 192-192 192z m0-352c-88.368 0-160 71.632-160 160s71.632 160 160 160 160-71.632 160-160-71.632-160-160-160zM513.28 62.768m-17.232 0a17.232 17.232 0 1 1 34.464 0 17.232 17.232 0 1 1-34.464 0ZM512 320m-48 0a48 48 0 1 1 96 0 48 48 0 1 1-96 0ZM928 768h-48.976A15.536 15.536 0 0 1 880 772.8V816a16 16 0 0 1-32 0v-43.2c0-1.712 0.48-3.264 0.976-4.8H175.024A15.536 15.536 0 0 1 176 772.8V816a16 16 0 0 1-32 0v-43.2c0-1.696 0.48-3.264 0.976-4.8H96a16 16 0 0 1-16-16v-128a16 16 0 0 1 32 0v112h800v-105.856a16 16 0 0 1 32 0V752a16 16 0 0 1-16 16zM838.112 590.272l25.984-238.352C864 159.232 706.4 1.648 512 1.648s-352 157.6-352 352l23.84 234.704-31.84 3.216-23.92-236.32C128 141.568 299.92-30.352 512-30.352s384 171.92 384 384l-26.08 240.096-31.808-3.472zM624 320a112 112 0 1 1-224 0 112 112 0 0 1 224 0z m-192 0a80 80 0 1 0 160.016-0.016A80 80 0 0 0 432 320z"  horiz-adv-x="1024" />

    
    <glyph glyph-name="shexiangtou1" unicode="&#58912;" d="M954.066 456.3a181.176 181.176 0 0 0-49.844-64.146 25.936 25.936 0 0 0 5.917-30.043l-87.854-188.377a25.985 25.985 0 0 0-34.531-12.566l-74.657 34.81a77.974 77.974 0 0 0-88.605-16.023l-149.2 69.564-50.517-101.011a77.534 77.534 0 0 0-69.729-43.083H223.391v-25.982a78.036 78.036 0 0 0-77.952-77.943h-51.97a25.982 25.982 0 0 0-25.984 25.98V287.293a25.983 25.983 0 0 0 25.983 25.982h51.969a78.076 78.076 0 0 0 73.485-51.964h87.941l27.067 54.118L200.593 377.6c-64.927 30.273-93.118 107.718-62.841 172.637l65.89 141.284c30.277 64.919 107.731 93.1 172.655 62.835l565.2-263.523a25.985 25.985 0 0 0 12.569-34.533zM145.439 261.313h-25.985v-207.85h25.983a26.012 26.012 0 0 1 25.985 25.982V235.331a26.012 26.012 0 0 1-25.983 25.982z m640.727-42.071l65.894 141.282-2.421 1.127a182 182 0 0 0-59.26-10.429L739.067 241.2z m-463.246-9.89h-99.529v-51.962h131.655a25.845 25.845 0 0 1 23.246 14.36l49.884 99.742-47.128 21.973-34.887-69.752a25.984 25.984 0 0 0-23.241-14.361zM217.795 598.917l-32.944-70.641a78.03 78.03 0 0 1 37.7-103.581L646.455 227.05a25.972 25.972 0 0 1 34.53 12.566l55.683 119.4a184.083 184.083 0 0 0-24.326 9.311z m136.539 108.344a78.041 78.041 0 0 1-103.593-37.7l-10.981-23.548 494.544-230.584a130.038 130.038 0 0 1 159.336 40.378z m266.985-411.155l-94.2 43.921a25.982 25.982 0 1 0 21.966 47.094l94.2-43.921a25.982 25.982 0 1 0-21.966-47.094z m-271.626 129.32a25.982 25.982 0 1 0 25.984 25.981 25.983 25.983 0 0 0-25.984-25.981z m-94.184 43.926a25.982 25.982 0 1 0 25.984 25.982 25.984 25.984 0 0 0-25.984-25.982z"  horiz-adv-x="1024" />

    
    <glyph glyph-name="xiaomishexiangtou" unicode="&#58959;" d="M806.4-115.2h-588.8C181.76-115.2 153.6-87.04 153.6-51.2v202.24c0 66.56 30.72 128 81.92 168.96l10.24 7.68 7.68-10.24c64-76.8 158.72-122.88 258.56-122.88s194.56 43.52 258.56 122.88l7.68 10.24 10.24-7.68c51.2-40.96 81.92-102.4 81.92-168.96V-51.2c0-35.84-28.16-64-64-64z m-563.2 407.04C202.24 256 179.2 204.8 179.2 151.04V-51.2c0-20.48 17.92-38.4 38.4-38.4h588.8c20.48 0 38.4 17.92 38.4 38.4v202.24c0 53.76-23.04 104.96-64 143.36-69.12-76.8-166.4-122.88-268.8-122.88s-202.24 43.52-268.8 120.32zM512 171.52c-197.12 0-358.4 158.72-358.4 355.84S314.88 883.2 512 883.2s358.4-158.72 358.4-355.84-161.28-355.84-358.4-355.84z m0 686.08c-184.32 0-332.8-148.48-332.8-330.24s148.48-330.24 332.8-330.24 332.8 148.48 332.8 330.24S696.32 857.6 512 857.6zM542.72 240.64h-64c-76.8 0-140.8 64-140.8 140.8V729.6c0 76.8 64 140.8 140.8 140.8h64c76.8 0 140.8-64 140.8-140.8v-348.16c2.56-76.8-61.44-140.8-140.8-140.8zM481.28 844.8c-64 0-115.2-51.2-115.2-115.2v-348.16c0-64 51.2-115.2 115.2-115.2h64c64 0 115.2 51.2 115.2 115.2V729.6c0 64-51.2 115.2-115.2 115.2h-64zM512 399.36c-71.68 0-128 56.32-128 128s56.32 128 128 128 128-56.32 128-128-56.32-128-128-128z m0 230.4c-56.32 0-102.4-46.08-102.4-102.4s46.08-102.4 102.4-102.4 102.4 46.08 102.4 102.4-46.08 102.4-102.4 102.4zM512 458.24c-38.4 0-71.68 30.72-71.68 69.12s30.72 69.12 71.68 69.12 71.68-30.72 71.68-69.12-33.28-69.12-71.68-69.12z m0 112.64c-25.6 0-46.08-20.48-46.08-43.52s20.48-43.52 46.08-43.52 46.08 20.48 46.08 43.52-20.48 43.52-46.08 43.52z"  horiz-adv-x="1024" />

    
    <glyph glyph-name="shexiangtou2" unicode="&#58913;" d="M235.5 36.9a282.1 83.7 0 1 1 564.2 0 282.1 83.7 0 1 1-564.2 0ZM249.1 76.8a268.3 79.6 0 1 1 536.6 0 268.3 79.6 0 1 1-536.6 0ZM517.4-18.3c-141.1 0-284 32.7-284 95.3 0 62.5 142.9 95.3 284 95.3s284-32.7 284-95.3c0-62.7-142.9-95.3-284-95.3z m0 159c-70.2 0-136-8-185.3-22.6-53.2-15.7-67.4-33.3-67.4-41.1 0-7.9 14.1-25.4 67.4-41.1 49.3-14.6 115.1-22.6 185.3-22.6s136 8 185.3 22.6c53.2 15.7 67.4 33.3 67.4 41.1 0 7.9-14.1 25.4-67.4 41.1-49.3 14.6-115.1 22.6-185.3 22.6zM516 107.3h-7.4c-27.3 0-49.6 22.3-49.6 49.6v70c0 27.3 22.3 49.6 49.6 49.6h7.4c27.3 0 49.6-22.3 49.6-49.6v-70c0-27.3-22.3-49.6-49.6-49.6zM516 91.6h-7.4c-36 0-65.3 29.2-65.3 65.3v70c0 36 29.2 65.3 65.3 65.3h7.4c36 0 65.3-29.2 65.3-65.3v-70c0-36-29.2-65.3-65.3-65.3z m-7.2 169.2c-18.7 0-33.9-15.2-33.9-33.9v-70c0-18.7 15.2-33.9 33.9-33.9h7.4c18.7 0 33.9 15.2 33.9 33.9v70c0 18.7-15.2 33.9-33.9 33.9h-7.4zM523.8 183.7h-25.9c-96.6 0-175.5 79-175.5 175.5v265c0 96.6 79 175.5 175.5 175.5h25.9c96.6 0 175.5-79 175.5-175.5v-264.9c0.1-96.4-78.9-175.6-175.5-175.6zM523.8 168h-25.9c-105.5 0-191.2 85.7-191.2 191.2v265c0 105.5 85.7 191.2 191.2 191.2h25.9c105.5 0 191.2-85.7 191.2-191.2v-264.9c0.1-105.4-85.8-191.3-191.2-191.3z m-26 616.1c-88.1 0-159.8-71.8-159.8-159.8v-264.9c0-88.1 71.8-159.8 159.8-159.8h25.9c88.1 0 159.8 71.8 159.8 159.8V624.3c0 88.1-71.8 159.8-159.8 159.8h-25.9zM512.4 608.4m-132.4 0a132.4 132.4 0 1 1 264.8 0 132.4 132.4 0 1 1-264.8 0ZM512.4 460.4c-81.6 0-148.1 66.4-148.1 148.1s66.4 148.1 148.1 148.1 148.1-66.4 148.1-148.1S594 460.4 512.4 460.4z m0 264.7c-64.4 0-116.7-52.3-116.7-116.7S448 491.8 512.4 491.8 629 544.1 629 608.4s-52.3 116.7-116.6 116.7zM516.9 649.3c-0.8 0.2-1.7 0.2-2.5 0.2-5.5 0.3-8.9-6.1-5.7-10.5 3.1-4.1 4.9-9.3 4.2-14.9-1.1-9.9-9.1-17.7-19-18.5-5-0.5-9.7 0.9-13.5 3.6-3.9 2.7-9.4-0.5-8.8-5.3v-0.5c2.4-19.2 18.4-34.4 37.7-35.8 25.1-1.9 46 19 44 44.1-1.5 19.5-16.9 35.4-36.4 37.6zM512.5 265.1c-38 0-68.9 30.9-68.9 68.9 0 8.6 7.1 15.7 15.7 15.7S475 342.6 475 334c0-20.7 16.8-37.5 37.5-37.5S550 313.3 550 334c0 8.6 7.1 15.7 15.7 15.7s15.7-7.1 15.7-15.7c0.1-38-30.9-68.9-68.9-68.9z"  horiz-adv-x="1024" />

    
    <glyph glyph-name="system" unicode="&#58885;" d="M1027.027478 168.425739h-63.532521v131.116522c0 22.349913-17.408 40.425739-38.912 40.425739h-352.701218v154.490435h224.300522c21.504 0 38.912 18.120348 38.912 40.425739V855.574261c0 22.349913-17.363478 40.425739-38.912 40.425739H269.712696c-21.459478 0-38.912-18.075826-38.912-40.425739V534.928696c0-22.26087 17.452522-40.381217 38.912-40.381218h224.389565v-154.490435H141.312c-21.504 0-38.912-18.120348-38.912-40.47026v-131.116522H38.912c-21.504 0-38.912-18.120348-38.912-40.425739v-212.902957c0-22.305391 17.408-40.381217 38.912-40.381217h204.889043c21.459478 0 38.912 18.075826 38.912 40.381217V128c0 22.305391-17.452522 40.425739-38.912 40.425739H180.268522v90.735304h313.789217v-90.735304H430.525217c-21.504 0-38.912-18.120348-38.912-40.425739v-212.902957c0-22.305391 17.408-40.381217 38.912-40.381217h204.889044c21.504 0 38.912 18.075826 38.912 40.381217V128c0 22.305391-17.408 40.425739-38.912 40.425739h-63.532522v90.735304h313.789218v-90.735304h-63.532522c-21.504 0-38.912-18.120348-38.912-40.425739v-212.902957c0-22.305391 17.408-40.381217 38.912-40.381217h204.889043c21.504 0 38.912 18.075826 38.912 40.381217V128c0 22.305391-17.408 40.425739-38.912 40.425739z"  horiz-adv-x="1068" />

    
    <glyph glyph-name="huaban" unicode="&#58941;" d="M1023.04 551.76v-14c-7.5-15.2-20-20.42-36.44-19.44-14.36 0.84-28.82 0.18-43.1 0.18v-107.22c15.6 0 30.48-0.52 45.28 0.14 16.46 0.74 28.32-4.94 34.24-20.9v-12c-6-16-17.8-21.62-34.24-20.9-15.04 0.66-30.14 0.14-45.36 0.14v-107.24c14.86 0 29.06-0.66 43.16 0.18 16.48 0.98 28.94-4.22 36.44-19.4v-14c-6-15.14-17.22-21.72-33.46-20.48-6.9 0.52-13.9 0-20.84 0h-25.2v-107.2c14.98 0 29.18-0.64 43.3 0.16 16.56 0.96 28.9-4.5 36.2-19.82v-14c-6.56-15.4-18.2-21.28-34.78-20.24-14.78 0.92-29.64 0.2-45.56 0.2 0-17.64 0.18-34.14 0-50.62-0.2-14.5-6.52-24.76-17.8-28.14a62.32 62.32 0 0 0-16.7-2c-15.1-0.24-30.22 0-46.14 0 0-18.7 0.24-35.88 0-53.06-0.28-15.58-11.32-26.78-26-27.12s-26.3 10.66-27.32 26c-0.6 8.92-0.18 17.9-0.2 26.84s0 17.66 0 26.58h-107.36v-11.48c0-14.26 0.3-28.52-0.28-42.76a26.34 26.34 0 0 0-52.3-3.14c-1.36 10.12-0.84 20.48-1 30.74-0.14 8.82 0 17.64 0 26.64h-107.16v-14.5c-0.14-14 0.34-27.88-0.7-41.74s-12.92-23.42-26.48-23.2A25.7 25.7 0 0 0 487.58-102c-0.98 10.86-0.54 21.86-0.66 32.78v23.58h-107.16c0-8.66 0.12-16.56 0-24.46-0.2-11.24 0.3-22.62-1.16-33.72-1.58-12-12.18-20.48-24.18-21.22a26 26 0 0 0-26.7 18.16 59.56 59.56 0 0 0-1.46 15.72c-0.18 15.14 0 30.26 0 45.58h-105.94c-0.68-0.92-1.04-1.18-1.04-1.46q-0.18-24.36-0.3-48.72c0-10.66-3.76-19.5-13.04-25.28-17.72-11.06-40 1.22-40.5 22.66-0.46 17.46 0 34.94 0 53.48-17.72 0-34.22-0.26-50.72 0-17.18 0.34-27.34 8.62-29.36 23.64a124.36 124.36 0 0 0-0.6 15.88v41.2c-19.02 0-36.52-0.26-54 0a26.28 26.28 0 0 0-26.3 24.46 26.72 26.72 0 0 0 21.84 28.86 74.7 74.7 0 0 0 13.86 0.8h43.82v107.16h-11.32c-14.26 0-28.52-0.28-42.76 0.28A26.44 26.44 0 0 0 28 250c9.84 1.04 19.86 0.48 29.8 0.54h26.3v107.36h-11.22c-14 0-27.86-0.32-41.78 0.22-15.78 0.62-26.64 11.72-26.74 26.38s10.68 25.84 26.4 26.66c9.26 0.5 18.56 0.18 27.84 0.22h25.14V518.6h-12.7c-14.9 0.24-29.9-0.44-44.68 1.02-13.68 1.34-22.8 14-22 27.5a26.26 26.26 0 0 0 24.22 24.68c6.26 0.5 12.58 0.3 18.88 0.32h36.26v107.2c-16.72 0-32.6-0.38-48.44 0.2a44 44 0 0 0-18 4.26c-10.32 5.3-15.02 18-12.12 28.98a26 26 0 0 0 25.34 20c17.78 0.32 35.58 0 54.12 0v11.28c0 12.6-0.12 25.2 0 37.8 0.24 21.58 10.18 31.44 32 31.72 10.28 0.14 20.56 0 30.84 0h17.88c0 16.38 0.7 30.98-0.18 45.48C164 875.78 169.9 887.48 185.36 894h14c15.32-7.3 20.74-19.64 19.8-36.2-0.82-14.38-0.16-28.84-0.16-43.34h107.26c0 15.48 0.64 30.34-0.18 45.1C325.1 876 330.82 887.8 346.52 894h14c4.36-3.34 10.38-5.8 12.72-10.22a56.12 56.12 0 0 0 6.3-22.26c0.92-15.68 0.28-31.44 0.28-47h107.14c0 16 0.48 31.12-0.14 46.26-0.66 16.22 5.5 27.46 20.92 33.2h12c16-6 21.62-17.78 20.92-34.22-0.64-15.04-0.14-30.14-0.14-45.32h107.08c0 14.84 0.62 29.04-0.16 43.14-1.02 16.42 4.24 28.94 19.44 36.42h14c15.16-6 21.34-17.22 20.52-33.5-0.78-15.1-0.16-30.28-0.16-46h107.2c0 14.92 0.66 29.14-0.18 43.28-1.04 16.6 4.48 28.9 19.74 36.22h14c15.48-6.48 21.22-18.2 20.26-34.7-0.86-14.76-0.18-29.6-0.18-45.54h45.5c26.1 0 35.12-9.1 35.16-35.32V733c16 0 30.86-0.72 45.62 0.2 16.54 1.02 28.2-4.8 34.7-20.24v-14c-7.3-15.34-19.64-20.8-36.22-19.88-14.4 0.8-28.9 0.16-43.42 0.16v-107.14c15.5 0 30.36-0.66 45.14 0.18 16.56 1 28.24-4.84 34.48-20.52zM513.62 9.3q182.5 0 365-0.16c8 0 10.68 2 10.68 10.42q-0.36 364 0 728c0 10-2.4 12.68-12.58 12.66q-364-0.42-728 0c-8 0-10.7-2-10.68-10.42q0.36-364 0-728c0-10 2.4-12.7 12.58-12.66 121 0.3 242 0.16 363 0.16zM513.7 62.78H227.26c-26.3 0-35.46 9.06-35.46 35.1V671.74c0 25.32 9.44 34.7 34.9 34.7h573.88c25.62 0 34.96-9.22 34.96-34.58V97c0-24.6-9.68-34.22-34.42-34.22z m267.5 54.14V652H246.12v-535.08zM459.58 330.44h-53.22v-34.5c0-14.26 0.1-28.52 0-42.76-0.2-17.42-11.36-29.52-26.9-29.42s-26.62 12.3-26.66 29.76q-0.2 84 0 168c0 19.2-0.74 38.62 1.84 57.52 5.44 39.66 42.86 68.72 82.82 66.34 40.98-2.44 75.2-35.04 75.8-75.5 1.06-73.24 0.52-146.52 0.26-219.78a26.52 26.52 0 0 0-26.88-26.38 26.92 26.92 0 0 0-26.46 26.88c-0.42 24.52-0.16 49.06-0.22 73.6 0.04 1.92-0.24 3.8-0.38 6.24z m0.42 54.66c0 26.6 0.1 52 0 77.5 0 17.16-11.56 29.38-26.98 29.22-15.02-0.16-26.34-12.14-26.52-28.72-0.26-22.48-0.1-44.96-0.12-67.44v-10.56zM593.58 278.2V491.34c-1.8 0.4-3.36 0.66-4.86 1.1-14.58 4.28-22.8 15.72-21.2 29.44s12.66 23.3 27.58 23.64c16.56 0.38 33.16 0.26 49.72 0s27.58-9.32 29.5-23.76c1.86-14-7.22-25.6-23.26-29.74-0.94-0.24-1.84-0.62-3.12-1.04v-212.6c2-0.62 4.42-1.32 6.76-2 12.64-4 20.8-15.46 19.74-27.72-1.14-13.06-10.92-24-24.46-24.58-19.18-0.9-38.46-0.86-57.66 0a26.22 26.22 0 0 0-24.9 24.14c-1.12 12.78 6.32 23.72 19.1 28 2.14 0.7 4.36 1.22 7.06 1.98z"  horiz-adv-x="1024" />

    


  </font>
</defs>
</svg>
